<?xml version="1.0" encoding="UTF-8" standalone="no"?>
<svg
   width="110px"
   height="40px"
   version="1.1"
   style="block-size:40px;border-block-end-color:rgb(0, 102, 204);border-block-start-color:rgb(0, 102, 204);border-bottom-color:rgb(0, 102, 204);border-collapse:collapse;border-inline-end-color:rgb(0, 102, 204);border-inline-start-color:rgb(0, 102, 204);border-left-color:rgb(0, 102, 204);border-right-color:rgb(0, 102, 204);border-spacing:2px 2px;border-top-color:rgb(0, 102, 204);caret-color:rgb(0, 102, 204);color:rgb(0, 102, 204);column-rule-color:rgb(0, 102, 204);cursor:pointer;height:40px;inline-size:110px;outline-color:rgb(0, 102, 204);perspective-origin:55px 20px;text-decoration-color:rgb(0, 102, 204);text-emphasis-color:rgb(0, 102, 204);transform-origin:55px 20px;width:110px;-webkit-text-fill-color:rgb(0, 102, 204);-webkit-text-stroke-color:rgb(0, 102, 204);"
   id="svg6"
   sodipodi:docname="discord.svg"
   inkscape:version="1.2.2 (732a01da63, 2022-12-09)"
   xmlns:inkscape="http://www.inkscape.org/namespaces/inkscape"
   xmlns:sodipodi="http://sodipodi.sourceforge.net/DTD/sodipodi-0.dtd"
   xmlns="http://www.w3.org/2000/svg"
   xmlns:svg="http://www.w3.org/2000/svg">
  <defs
     id="defs10" />
  <sodipodi:namedview
     id="namedview8"
     pagecolor="#505050"
     bordercolor="#eeeeee"
     borderopacity="1"
     inkscape:showpageshadow="0"
     inkscape:pageopacity="0"
     inkscape:pagecheckerboard="0"
     inkscape:deskcolor="#505050"
     showgrid="false"
     showguides="false"
     inkscape:zoom="3.9822968"
     inkscape:cx="113.50234"
     inkscape:cy="22.851134"
     inkscape:window-width="1920"
     inkscape:window-height="1009"
     inkscape:window-x="-8"
     inkscape:window-y="-8"
     inkscape:window-maximized="1"
     inkscape:current-layer="svg6" />
  <rect
     x="0"
     y="0"
     width="110"
     height="40"
     rx="4"
     ry="4"
     style="block-size:40px;border-block-end-color:rgb(0, 102, 204);border-block-start-color:rgb(0, 102, 204);border-bottom-color:rgb(0, 102, 204);border-collapse:collapse;border-inline-end-color:rgb(0, 102, 204);border-inline-start-color:rgb(0, 102, 204);border-left-color:rgb(0, 102, 204);border-right-color:rgb(0, 102, 204);border-spacing:2px 2px;border-top-color:rgb(0, 102, 204);caret-color:rgb(0, 102, 204);color:rgb(0, 102, 204);column-rule-color:rgb(0, 102, 204);cursor:pointer;fill:rgb(88, 101, 242);height:40px;inline-size:110px;outline-color:rgb(0, 102, 204);overflow-block:visible;overflow-inline:visible;overflow-x:visible;overflow-y:visible;perspective-origin:55px 20px;rx:4px;ry:4px;text-decoration-color:rgb(0, 102, 204);text-emphasis-color:rgb(0, 102, 204);transform-origin:0px 0px;user-select:none;width:110px;-webkit-text-fill-color:rgb(0, 102, 204);-webkit-text-stroke-color:rgb(0, 102, 204);"
     id="rect2" />
  <g
     aria-label="DISCORD"
     id="text4"
     style="font-weight:900;font-size:16px;font-family:Inter;text-transform:uppercase;dominant-baseline:central;text-anchor:middle;fill:#ffffff;-webkit-text-fill-color:rgb(0, 102, 204);-webkit-text-stroke-color:rgb(0, 102, 204)">
    <path
       d="M 22.988656,24.807512 H 18.511383 V 13.171148 h 4.431818 q 1.795455,0 3.102273,0.698864 1.3125,0.693182 2.022727,2 0.715909,1.301136 0.715909,3.119318 0,1.818182 -0.710227,3.125 -0.710227,1.301136 -2.011364,2 -1.301136,0.693182 -3.073863,0.693182 z m -1.318182,-2.681818 h 1.204545 q 0.863637,0 1.471591,-0.278409 0.613637,-0.27841 0.931819,-0.960228 0.323863,-0.681818 0.323863,-1.897727 0,-1.215909 -0.329545,-1.897727 -0.323864,-0.681818 -0.954546,-0.960228 -0.625,-0.278409 -1.534091,-0.278409 h -1.113636 z"
       id="path286" />
    <path
       d="M 33.397738,13.171148 V 24.807512 H 30.238647 V 13.171148 Z"
       id="path288" />
    <path
       d="m 41.170463,16.807512 q -0.04545,-0.568182 -0.426136,-0.886364 -0.375,-0.318182 -1.142046,-0.318182 -0.488636,0 -0.801136,0.119319 -0.306818,0.113636 -0.454546,0.3125 -0.147727,0.198863 -0.153409,0.454545 -0.01136,0.210227 0.07386,0.380682 0.09091,0.164773 0.284091,0.301136 0.193182,0.130682 0.494318,0.238637 0.301136,0.107954 0.715909,0.193181 l 0.954545,0.204546 q 0.96591,0.204545 1.65341,0.539773 0.6875,0.335227 1.125,0.789772 0.4375,0.448864 0.642045,1.011364 0.210227,0.5625 0.215909,1.227273 -0.0057,1.147727 -0.573864,1.943181 -0.568181,0.795455 -1.625,1.210228 -1.051136,0.414772 -2.528409,0.414772 -1.517045,0 -2.647727,-0.448863 -1.125,-0.448864 -1.75,-1.380682 -0.619318,-0.9375 -0.625,-2.397727 h 3 q 0.02841,0.534091 0.267046,0.897727 0.238636,0.363636 0.670454,0.551136 0.4375,0.1875 1.039773,0.1875 0.505682,0 0.846591,-0.125 0.340909,-0.125 0.517045,-0.346591 0.176137,-0.22159 0.181818,-0.505681 -0.0057,-0.267046 -0.176136,-0.465909 -0.164773,-0.204546 -0.545455,-0.363637 -0.380681,-0.164773 -1.028409,-0.306818 l -1.159091,-0.25 q -1.545454,-0.335227 -2.4375,-1.119318 -0.886363,-0.789773 -0.880681,-2.153409 -0.0057,-1.107955 0.590909,-1.9375 0.602272,-0.835228 1.664772,-1.301137 1.068182,-0.465909 2.448864,-0.465909 1.409091,0 2.4375,0.471591 1.028409,0.471591 1.585227,1.329546 0.5625,0.852272 0.568182,1.994318 z"
       id="path290" />
    <path
       d="m 56.42046,17.534785 h -3.204545 q -0.03409,-0.397728 -0.181819,-0.721591 -0.142045,-0.323864 -0.397727,-0.556819 -0.25,-0.238636 -0.607954,-0.363636 -0.357955,-0.130682 -0.8125,-0.130682 -0.795455,0 -1.346591,0.386364 -0.545455,0.386364 -0.829546,1.107954 -0.278409,0.721591 -0.278409,1.732955 0,1.068182 0.284091,1.789773 0.289773,0.715909 0.835227,1.079545 0.545455,0.357955 1.3125,0.357955 0.4375,0 0.784091,-0.107955 0.346591,-0.113636 0.602273,-0.323863 0.255682,-0.210228 0.414773,-0.505682 0.164772,-0.301137 0.221591,-0.676137 l 3.204545,0.02273 q -0.05682,0.738636 -0.414773,1.505681 -0.357954,0.761364 -1.017045,1.409091 -0.653409,0.642046 -1.619318,1.034091 -0.965909,0.392046 -2.244318,0.392046 -1.602273,0 -2.875,-0.6875 -1.267046,-0.6875 -2.005682,-2.022728 -0.732955,-1.335227 -0.732955,-3.267045 0,-1.943182 0.75,-3.272727 0.75,-1.335228 2.022727,-2.017046 1.272728,-0.6875 2.84091,-0.6875 1.102272,0 2.028409,0.301137 0.926136,0.301136 1.625,0.880681 0.698863,0.573864 1.125,1.414773 0.426136,0.840909 0.517045,1.926137 z"
       id="path292" />
    <path
       d="m 69.124992,18.98933 q 0,1.943182 -0.755682,3.278409 -0.755682,1.329546 -2.039773,2.017046 -1.284091,0.681818 -2.863636,0.681818 -1.590909,0 -2.875,-0.6875 -1.278409,-0.693182 -2.034091,-2.022728 -0.75,-1.335227 -0.75,-3.267045 0,-1.943182 0.75,-3.272727 0.755682,-1.335228 2.034091,-2.017046 1.284091,-0.6875 2.875,-0.6875 1.579545,0 2.863636,0.6875 1.284091,0.681818 2.039773,2.017046 0.755682,1.329545 0.755682,3.272727 z m -3.25,0 q 0,-1.045455 -0.278409,-1.761364 -0.272728,-0.721591 -0.8125,-1.090909 -0.534091,-0.375 -1.318182,-0.375 -0.784091,0 -1.323864,0.375 -0.534091,0.369318 -0.8125,1.090909 -0.272727,0.715909 -0.272727,1.761364 0,1.045455 0.272727,1.767045 0.278409,0.71591 0.8125,1.09091 0.539773,0.369318 1.323864,0.369318 0.784091,0 1.318182,-0.369318 0.539772,-0.375 0.8125,-1.09091 0.278409,-0.72159 0.278409,-1.767045 z"
       id="path294" />
    <path
       d="M 70.579529,24.807512 V 13.171148 h 5.022727 q 1.295455,0 2.267046,0.471591 0.97159,0.471591 1.511363,1.357955 0.539773,0.886363 0.539773,2.125 0,1.25 -0.556818,2.107954 -0.551137,0.857955 -1.551137,1.295455 -0.994318,0.4375 -2.323863,0.4375 h -3 v -2.454546 h 2.363636 q 0.556818,0 0.948864,-0.136363 0.397727,-0.142046 0.607954,-0.448864 0.215909,-0.306818 0.215909,-0.801136 0,-0.5 -0.215909,-0.8125 -0.210227,-0.318182 -0.607954,-0.465909 -0.392046,-0.15341 -0.948864,-0.15341 H 73.73862 v 9.113637 z m 6.818182,-5.340909 2.909091,5.340909 h -3.431819 l -2.840909,-5.340909 z"
       id="path296" />
    <path
       d="M 85.738625,24.807512 H 81.261353 V 13.171148 h 4.431818 q 1.795454,0 3.102272,0.698864 1.3125,0.693182 2.022728,2 0.715909,1.301136 0.715909,3.119318 0,1.818182 -0.710227,3.125 -0.710228,1.301136 -2.011364,2 -1.301136,0.693182 -3.073864,0.693182 z m -1.318182,-2.681818 h 1.204546 q 0.863636,0 1.471591,-0.278409 0.613636,-0.27841 0.931818,-0.960228 0.323864,-0.681818 0.323864,-1.897727 0,-1.215909 -0.329546,-1.897727 -0.323863,-0.681818 -0.954545,-0.960228 -0.625,-0.278409 -1.534091,-0.278409 h -1.113637 z"
       id="path298" />
  </g>
</svg>
