<?xml version="1.0" encoding="UTF-8" standalone="no"?>
<svg
   width="110px"
   height="40px"
   version="1.1"
   style="block-size:40px;border-block-end-color:rgb(0, 102, 204);border-block-start-color:rgb(0, 102, 204);border-bottom-color:rgb(0, 102, 204);border-collapse:collapse;border-inline-end-color:rgb(0, 102, 204);border-inline-start-color:rgb(0, 102, 204);border-left-color:rgb(0, 102, 204);border-right-color:rgb(0, 102, 204);border-spacing:2px 2px;border-top-color:rgb(0, 102, 204);caret-color:rgb(0, 102, 204);color:rgb(0, 102, 204);column-rule-color:rgb(0, 102, 204);cursor:pointer;height:40px;inline-size:110px;outline-color:rgb(0, 102, 204);perspective-origin:55px 20px;text-decoration-color:rgb(0, 102, 204);text-emphasis-color:rgb(0, 102, 204);transform-origin:55px 20px;width:110px;-webkit-text-fill-color:rgb(0, 102, 204);-webkit-text-stroke-color:rgb(0, 102, 204);"
   id="svg6"
   sodipodi:docname="teamspeak.svg"
   inkscape:version="1.2.2 (732a01da63, 2022-12-09)"
   xmlns:inkscape="http://www.inkscape.org/namespaces/inkscape"
   xmlns:sodipodi="http://sodipodi.sourceforge.net/DTD/sodipodi-0.dtd"
   xmlns="http://www.w3.org/2000/svg"
   xmlns:svg="http://www.w3.org/2000/svg">
  <defs
     id="defs10" />
  <sodipodi:namedview
     id="namedview8"
     pagecolor="#505050"
     bordercolor="#eeeeee"
     borderopacity="1"
     inkscape:showpageshadow="0"
     inkscape:pageopacity="0"
     inkscape:pagecheckerboard="0"
     inkscape:deskcolor="#505050"
     showgrid="false"
     showguides="false"
     inkscape:zoom="3.9822968"
     inkscape:cx="36.66226"
     inkscape:cy="31.13781"
     inkscape:window-width="1920"
     inkscape:window-height="1009"
     inkscape:window-x="-8"
     inkscape:window-y="-8"
     inkscape:window-maximized="1"
     inkscape:current-layer="svg6" />
  <rect
     x="0"
     y="0"
     width="110"
     height="40"
     rx="4"
     ry="4"
     style="block-size:40px;border-block-end-color:rgb(0, 102, 204);border-block-start-color:rgb(0, 102, 204);border-bottom-color:rgb(0, 102, 204);border-collapse:collapse;border-inline-end-color:rgb(0, 102, 204);border-inline-start-color:rgb(0, 102, 204);border-left-color:rgb(0, 102, 204);border-right-color:rgb(0, 102, 204);border-spacing:2px 2px;border-top-color:rgb(0, 102, 204);caret-color:rgb(0, 102, 204);color:rgb(0, 102, 204);column-rule-color:rgb(0, 102, 204);cursor:pointer;fill:#1c2437;height:40px;inline-size:110px;outline-color:rgb(0, 102, 204);overflow-block:visible;overflow-inline:visible;overflow-x:visible;overflow-y:visible;perspective-origin:55px 20px;rx:4px;ry:4px;text-decoration-color:rgb(0, 102, 204);text-emphasis-color:rgb(0, 102, 204);transform-origin:0px 0px;user-select:none;width:110px;-webkit-text-fill-color:rgb(0, 102, 204);-webkit-text-stroke-color:rgb(0, 102, 204);fill-opacity:1"
     id="rect2" />
  <g
     aria-label="TEAMSPEAK"
     id="text4"
     style="font-weight:900;font-size:16px;font-family:Inter;text-transform:uppercase;dominant-baseline:central;text-anchor:middle;fill:#ffffff;-webkit-text-fill-color:rgb(0, 102, 204);-webkit-text-stroke-color:rgb(0, 102, 204)">
    <path
       d="M 3.5113622,15.716603 V 13.171148 H 13.624999 v 2.545455 h -3.5 v 9.090909 H 7.0113622 v -9.090909 z"
       id="path3122" />
    <path
       d="M 14.806808,24.807512 V 13.171148 h 8.386364 v 2.545455 h -5.227273 v 2 h 4.795455 v 2.545454 h -4.795455 v 2 h 5.204546 v 2.545455 z"
       id="path3124" />
    <path
       d="m 27.784095,24.807512 h -3.409091 l 3.840909,-11.636364 h 4.318182 l 3.840909,11.636364 h -3.409091 l -2.545454,-8.431818 h -0.09091 z m -0.636364,-4.590909 h 6.409091 v 2.363636 h -6.409091 z"
       id="path3126" />
    <path
       d="m 37.488632,13.171148 h 3.931818 l 2.704546,6.590909 h 0.136363 l 2.704546,-6.590909 h 3.931818 v 11.636364 h -3.090909 v -6.727273 h -0.09091 l -2.590909,6.636364 H 43.261359 L 40.67045,18.034785 h -0.09091 v 6.772727 h -3.090909 z"
       id="path3128" />
    <path
       d="m 58.670448,16.807512 q -0.04545,-0.568182 -0.426137,-0.886364 -0.375,-0.318182 -1.142045,-0.318182 -0.488637,0 -0.801137,0.119319 -0.306818,0.113636 -0.454545,0.3125 -0.147727,0.198863 -0.153409,0.454545 -0.01136,0.210227 0.07386,0.380682 0.09091,0.164773 0.28409,0.301136 0.193182,0.130682 0.494319,0.238637 0.301136,0.107954 0.715909,0.193181 l 0.954545,0.204546 q 0.965909,0.204545 1.653409,0.539773 0.6875,0.335227 1.125,0.789772 0.4375,0.448864 0.642046,1.011364 0.210227,0.5625 0.215909,1.227273 -0.0057,1.147727 -0.573864,1.943181 -0.568182,0.795455 -1.625,1.210228 -1.051136,0.414772 -2.528409,0.414772 -1.517045,0 -2.647727,-0.448863 -1.125,-0.448864 -1.75,-1.380682 -0.619318,-0.9375 -0.625,-2.397727 h 3 q 0.02841,0.534091 0.267045,0.897727 0.238637,0.363636 0.670455,0.551136 0.4375,0.1875 1.039773,0.1875 0.505681,0 0.84659,-0.125 0.34091,-0.125 0.517046,-0.346591 0.176136,-0.22159 0.181818,-0.505681 -0.0057,-0.267046 -0.176136,-0.465909 -0.164773,-0.204546 -0.545455,-0.363637 -0.380682,-0.164773 -1.028409,-0.306818 l -1.159091,-0.25 q -1.545454,-0.335227 -2.4375,-1.119318 -0.886363,-0.789773 -0.880682,-2.153409 -0.0057,-1.107955 0.590909,-1.9375 0.602273,-0.835228 1.664773,-1.301137 1.068182,-0.465909 2.448864,-0.465909 1.409091,0 2.4375,0.471591 1.028409,0.471591 1.585227,1.329546 0.5625,0.852272 0.568182,1.994318 z"
       id="path3130" />
    <path
       d="M 63.056808,24.807512 V 13.171148 h 5.022728 q 1.295454,0 2.267045,0.511364 0.971591,0.511363 1.511364,1.4375 0.539773,0.926136 0.539773,2.164773 0,1.25 -0.556819,2.164772 -0.551136,0.914773 -1.551136,1.409091 -0.994318,0.494318 -2.323864,0.494318 h -3 v -2.454545 h 2.363637 q 0.556818,0 0.948863,-0.193182 0.397728,-0.198864 0.607955,-0.5625 0.215909,-0.363636 0.215909,-0.857954 0,-0.5 -0.215909,-0.852273 -0.210227,-0.357955 -0.607955,-0.545455 -0.392045,-0.193182 -0.948863,-0.193182 h -1.113637 v 9.113637 z"
       id="path3132" />
    <path
       d="M 73.556808,24.807512 V 13.171148 h 8.386364 v 2.545455 h -5.227273 v 2 h 4.795455 v 2.545454 h -4.795455 v 2 h 5.204546 v 2.545455 z"
       id="path3134" />
    <path
       d="m 86.534095,24.807512 h -3.409091 l 3.840909,-11.636364 h 4.318182 l 3.840909,11.636364 h -3.409091 l -2.545454,-8.431818 h -0.09091 z m -0.636364,-4.590909 h 6.409091 v 2.363636 h -6.409091 z"
       id="path3136" />
    <path
       d="M 96.238632,24.807512 V 13.171148 h 3.159091 v 4.704546 h 0.159091 l 3.499996,-4.704546 h 3.68182 l -3.93182,5.181818 4.02273,6.454546 h -3.77273 l -2.61363,-4.363637 -1.045457,1.363637 v 3 z"
       id="path3138" />
  </g>
</svg>
