<svg width="14" height="14" viewBox="0 0 14 14" fill="none" xmlns="http://www.w3.org/2000/svg">
<path fill-rule="evenodd" clip-rule="evenodd" d="M10.0005 8.8005H9.3685L9.1445 8.5845C10.1045 7.4645 10.6005 5.9365 10.3285 4.3125C9.9525 2.0885 8.0965 0.3125 5.8565 0.0405005C2.4725 -0.375499 -0.3755 2.4725 0.0405005 5.8565C0.3125 8.0965 2.0885 9.9525 4.3125 10.3285C5.9365 10.6005 7.4645 10.1045 8.5845 9.1445L8.8005 9.3685V10.0005L12.2005 13.4005C12.5285 13.7285 13.0645 13.7285 13.3925 13.4005C13.7205 13.0725 13.7205 12.5365 13.3925 12.2085L10.0005 8.8005ZM5.2005 8.8005C3.2085 8.8005 1.6005 7.1925 1.6005 5.2005C1.6005 3.2085 3.2085 1.6005 5.2005 1.6005C7.1925 1.6005 8.8005 3.2085 8.8005 5.2005C8.8005 7.1925 7.1925 8.8005 5.2005 8.8005Z" fill="white"/>
</svg>
